<svg xmlns="http://www.w3.org/2000/svg" viewBox="0 0 850 850"><defs><style>.cls-1{fill:#ffe3bd;}.cls-2{fill:#f3c895;}.cls-3{fill:#d4a36e;}.cls-4{fill:#e8593a;}.cls-5{fill:#bb5a31;}.cls-6{font-size:55.43px;font-family:Splatfont2, "Splatfont 2";}.cls-11,.cls-6{fill:#c48455;}.cls-7{letter-spacing:-0.02em;}.cls-8{letter-spacing:-0.03em;}.cls-9{letter-spacing:0em;}.cls-10{letter-spacing:-0.02em;}.cls-12{opacity:0.75;}.cls-13{fill:#ecebe3;}.cls-14{fill:none;stroke:#764e47;stroke-linecap:round;stroke-linejoin:round;stroke-width:4px;}</style></defs><title>logo</title><g id="Hexo"><polygon class="cls-1" points="780 625 780 225 425 25 70 225 70 625 425 825 780 625"/></g><g id="Upper"><polygon class="cls-1" points="425 25 70 225 425 425 780 225 425 25"/></g><g id="Left"><polygon class="cls-2" points="70 225 70 625 425 825 425 425 70 225"/></g><g id="Right"><polygon class="cls-3" points="780 225 425 425 425 825 780 625 780 225"/></g><g id="RibbonU"><polygon class="cls-4" points="625 138 581 113 226 313 271 338 625 138"/></g><g id="RibbonL"><polygon class="cls-5" points="226 313 226 513 271 538 271 338 226 313"/></g><g id="Label"><text class="cls-6" transform="matrix(0.75, -0.43, 0, 1, 491.38, 751.36)">Ta<tspan class="cls-7" x="57.36" y="0">k</tspan><tspan x="82.69" y="0">o </tspan><tspan class="cls-8" x="125.48" y="0">L</tspan><tspan class="cls-9" x="145.05" y="0">ogi</tspan><tspan class="cls-10" x="210.84" y="0">s</tspan><tspan x="236.94" y="0">tics</tspan></text></g><g id="Tako"><path class="cls-11" d="M662.24,541c-3.69,4.25-8,4.45-9.56.45a12,12,0,0,1-.23-6.73,50.35,50.35,0,0,1-14.05,11.72c-12.06,6.77-23,3.74-28.14-7.81-5.56,17.52-16.7,32.84-28.78,39.63-4.84,2.74-9.61,4-14,3.69,1.2,4.35-.89,11-4.67,14.73-1.76,1.76-3.67,2.68-5.33,2.56-5.41.6-5.63-6.43-15.53-9.95-7.24,16.07-5.87,32.74,3,37.23,3.39,1.71,7.55,1.46,11.9-.72,9.21-3.93,18.39-13.48,25-26-3.57,9.54-4.47,19.26-2.46,26.54,13-6.31,25.06-14.13,29.82-39.77l-.37-.55.37.55c4.37,20.89,16.39,15.38,29.42,7.18,2.2-9.71,1.41-18.58-2.14-24.11,6.41,5.6,15.69,5.07,25.13-1.45,11.47-7.17,20.44-25.19,20-40.25-.16-5.77-1.71-10.52-4.42-13.56C668,528.38,667.67,535.65,662.24,541Z"/><path class="cls-11" d="M612.21,398.09h0c-44.51,25.2-79.08,80.8-74.42,124.94,1.2,14.39,5.56,26.2,12.58,34.07a36.69,36.69,0,0,1-.24-4.13c.15-23.53,14.53-50.65,32.1-60.59.68-.39,1.36-.74,2-1.07,11.33-7.69,22-5.63,26.93,5.2,5.14-16.23,15.8-30.16,26.95-35.22,17.46-11.1,32.24-1.57,33,21.27,0,1,0,2.09,0,3.17,0,1.65-.14,3.34-.28,5a154.82,154.82,0,0,0,13.81-49.17C690.26,391.8,656.3,374.57,612.21,398.09Z"/><path class="cls-11" d="M637.64,471c-12.38,6.74-22.66,25.72-23,42.4s9.49,24.72,21.86,18,22.66-25.72,23-42.4v-.17c.33-16.56-9.37-24.59-21.65-17.93Zm9.66,17.61c-.73,10.14-7.23,21-14.52,24.21-6.46,2.87-11.5-1.19-11.91-9.6.73-10.14,7.23-21,14.51-24.21C641.85,476.15,646.89,480.21,647.3,488.62Z"/><path class="cls-11" d="M584.47,500.41c-12.37,6.74-22.65,25.72-23,42.4s9.48,24.72,21.86,18,22.65-25.73,23-42.4v-.17C606.57,501.65,596.8,493.69,584.47,500.41Zm16.07,14.07c-.4,9.48-6.35,20-13.29,23.44l0,0c-6.85,4.15-12.56.29-12.83-8.68.44-9.5,6.42-20,13.35-23.38l0,0C594.57,501.71,600.27,505.55,600.54,514.48Z"/></g><g id="Tag" class="cls-12"><polyline class="cls-13" points="469 565 469 465 605 388 605 488 469 565 469 465"/></g><g id="Text"><polygon class="cls-14" points="578.47 420.58 500.53 465.58 500.53 464.42 578.47 419.42 578.47 420.58"/><polygon class="cls-14" points="578.47 441.58 500.53 486.58 500.53 485.42 578.47 440.42 578.47 441.58"/><polygon class="cls-14" points="578.47 462.58 500.53 507.58 500.53 506.42 578.47 461.42 578.47 462.58"/><polygon class="cls-14" points="578.47 483.58 500.53 528.58 500.53 527.42 578.47 482.42 578.47 483.58"/></g></svg>